<svg width="22" height="22" viewBox="0 0 22 22" fill="none" xmlns="http://www.w3.org/2000/svg">
<path id="Icon" d="M9.99845 3.5031H3.38854C2.88767 3.5031 2.40731 3.70207 2.05314 4.05625C1.69897 4.41042 1.5 4.89077 1.5 5.39165V18.6115C1.5 19.1123 1.69897 19.5927 2.05314 19.9469C2.40731 20.301 2.88767 20.5 3.38854 20.5H16.6084C17.1092 20.5 17.5896 20.301 17.9438 19.9469C18.2979 19.5927 18.4969 19.1123 18.4969 18.6115V12.0016M17.0805 2.0867C17.4561 1.71104 17.9656 1.5 18.4969 1.5C19.0282 1.5 19.5377 1.71104 19.9133 2.0867C20.289 2.46235 20.5 2.97185 20.5 3.5031C20.5 4.03436 20.289 4.54386 19.9133 4.91951L10.9427 13.8901L7.16563 14.8344L8.1099 11.0573L17.0805 2.0867Z" stroke="#1E1E1E" stroke-width="2.5" stroke-linecap="round" stroke-linejoin="round"/>
</svg>
