<svg width="36" height="36" viewBox="0 0 36 36" fill="none" xmlns="http://www.w3.org/2000/svg">
<g filter="url(#filter0_d_2414_479)">
<rect width="32" height="32" fill="#EA526F" shape-rendering="crispEdges"/>
<rect x="1" y="1" width="30" height="30" stroke="black" stroke-width="2" shape-rendering="crispEdges"/>
<path d="M14.9984 8.5031H8.38854C7.88767 8.5031 7.40731 8.70207 7.05314 9.05625C6.69897 9.41042 6.5 9.89077 6.5 10.3916V23.6115C6.5 24.1123 6.69897 24.5927 7.05314 24.9469C7.40731 25.301 7.88767 25.5 8.38854 25.5H21.6084C22.1092 25.5 22.5896 25.301 22.9438 24.9469C23.2979 24.5927 23.4969 24.1123 23.4969 23.6115V17.0016M22.0805 7.0867C22.4561 6.71104 22.9656 6.5 23.4969 6.5C24.0282 6.5 24.5377 6.71104 24.9133 7.0867C25.289 7.46235 25.5 7.97185 25.5 8.5031C25.5 9.03436 25.289 9.54386 24.9133 9.91951L15.9427 18.8901L12.1656 19.8344L13.1099 16.0573L22.0805 7.0867Z" stroke="#1E1E1E" stroke-width="2.5" stroke-linecap="round" stroke-linejoin="round"/>
</g>
<defs>
<filter id="filter0_d_2414_479" x="0" y="0" width="36" height="36" filterUnits="userSpaceOnUse" color-interpolation-filters="sRGB">
<feFlood flood-opacity="0" result="BackgroundImageFix"/>
<feColorMatrix in="SourceAlpha" type="matrix" values="0 0 0 0 0 0 0 0 0 0 0 0 0 0 0 0 0 0 127 0" result="hardAlpha"/>
<feOffset dx="4" dy="4"/>
<feComposite in2="hardAlpha" operator="out"/>
<feColorMatrix type="matrix" values="0 0 0 0 0 0 0 0 0 0 0 0 0 0 0 0 0 0 1 0"/>
<feBlend mode="normal" in2="BackgroundImageFix" result="effect1_dropShadow_2414_479"/>
<feBlend mode="normal" in="SourceGraphic" in2="effect1_dropShadow_2414_479" result="shape"/>
</filter>
</defs>
</svg>
